<svg id="_x30_7e5ab80-a0ca-4a7b-bed4-0aa71892c5ec" xmlns="http://www.w3.org/2000/svg" viewBox="0 0 168.5 40"><style>.st0{fill:#70bce8}.st1{fill:#4b71b5}</style><title>logo</title><path id="_x36_5a3652f-bd0f-49dc-822e-90d09a5c95b9" class="st0" d="M32.6 22.2c0 2.9 1.7 4.9 4.9 4.9 1.4 0 2.7-.4 3.8-1.2.6-.5 1.3-.8 2.1-.8 1.2.1 2.2 1.1 2.2 2.3 0 1-.9 2-2.2 2.9-1.8 1.1-3.9 1.6-6 1.5-5.3 0-10.3-2.4-10.3-11.4 0-7.2 3.9-11.3 9.6-11.3 6 0 9.5 4.3 9.6 9.9.1.9-.2 1.8-.7 2.5-.7.6-1.6.8-2.4.7H32.6zm7.9-6.2c-.7-1.5-2.1-2.4-3.7-2.3-1.6-.1-3.1.8-3.7 2.3-.3.8-.5 1.6-.5 2.4H41c0-.8-.2-1.6-.5-2.4z"/><path id="_x38_bc02a81-c92b-4586-b653-745d993adeb0" class="st0" d="M51.8 14.3h-.5c-.6.1-1.3 0-1.9-.3-.7-.4-1-1.1-1-1.8s.3-1.5 1-1.8c.6-.3 1.2-.4 1.9-.3h.5v-3c-.1-.8 0-1.7.4-2.5.8-1.3 2.6-1.7 3.9-.9.4.2.7.5.9.9.3.8.5 1.6.4 2.5v3H59c.6-.1 1.3 0 1.9.3.7.4 1 1.1 1 1.8s-.3 1.5-1 1.8c-.6.3-1.2.4-1.9.3h-1.7V25c-.2.9.4 1.8 1.4 2h.4c.6 0 1.1.1 1.7.3.8.4 1.2 1.2 1.1 2 .1.8-.4 1.6-1.1 2-.7.3-1.5.4-2.3.4h-.3c-4.6 0-6.4-3.1-6.4-6.3V14.3z"/><path id="a2370e52-f55d-4769-88b6-e192b82614b1" class="st1" d="M80.5 29.1c-3.9 3.7-9.9 3.7-13.8 0-2-2.1-2.5-4.6-2.5-8.6s.5-6.5 2.5-8.6c3.9-3.7 9.9-3.7 13.8 0 2 2.1 2.5 4.6 2.5 8.6s-.5 6.5-2.5 8.6zm-9.4-3.2c1.5 1.3 3.7 1.3 5.2 0 1.1-1.1 1.3-3 1.3-5.4s-.2-4.3-1.3-5.4c-1.5-1.3-3.7-1.3-5.2 0-1.1 1.1-1.3 3-1.3 5.4s.2 4.3 1.3 5.4z"/><path id="d32c294a-aab6-4584-a531-659705291e6b" class="st1" d="M98 9.2c1.3-.1 2.7.3 3.8 1 .8.5 1.4 1.4 1.4 2.3 0 .7-.3 1.5-.8 2s-1.2.8-1.8.8c-.7 0-1.3-.2-1.9-.6-.6-.4-1.4-.6-2.1-.6-1.8 0-3.7 1.3-3.7 4.1V28c.1.8 0 1.7-.4 2.5-.8 1.3-2.6 1.7-3.9.9-.4-.2-.7-.5-.9-.9-.3-.8-.5-1.6-.4-2.5V13c-.1-.9 0-1.7.4-2.5.5-.8 1.4-1.3 2.4-1.3.7 0 1.3.2 1.8.6.5.4.8 1 .8 1.7C94.1 10 96 9.2 98 9.2z"/><path id="_x33_2398f07-d1bf-4f8f-bfe4-bfe8dfbc0a50" class="st1" d="M109.1 0c1.8 0 3.2 1.4 3.2 3.2 0 1.8-1.4 3.2-3.2 3.2-1.8 0-3.2-1.4-3.2-3.2s1.4-3.2 3.2-3.2zm2.4 30.5c-.8 1.3-2.6 1.7-3.9.9-.4-.2-.7-.5-.9-.9-.3-.8-.5-1.6-.4-2.5V13.7c-.1-.8 0-1.7.4-2.5.8-1.3 2.6-1.7 3.9-.9.4.2.7.5.9.9.3.8.5 1.6.4 2.5V28c.1.8-.1 1.7-.4 2.5z"/><path id="ba82b899-f3b5-477a-abc1-c0881d48e117" class="st1" d="M119.1 38.8c-1.2-.7-2.2-1.6-2.2-2.8 0-1.2 1-2.3 2.2-2.4.7 0 1.5.3 2.1.7 1 .6 2.1 1 3.3 1 3.3 0 4.4-2.3 4.4-4.6v-2.2c-1.3 1.5-3.3 2.3-5.3 2.2-2 .1-3.9-.7-5.3-2-2.1-2.1-2.3-4.9-2.3-8.8s.2-6.7 2.3-8.8c1.4-1.3 3.4-2.1 5.3-2 2.1-.1 4.1.8 5.4 2.4.1-.6.4-1.2.8-1.6.5-.4 1.1-.7 1.8-.6 1 0 1.9.4 2.4 1.3.4.8.5 1.6.4 2.5v17.8c0 5.3-3.8 9.2-9.8 9.2-1.9 0-3.8-.4-5.5-1.3zm6.1-24.6c-3.3 0-3.6 2.8-3.6 5.7s.3 5.8 3.6 5.8 3.7-2.8 3.7-5.8-.4-5.7-3.7-5.7z"/><path id="_x34_5645c63-43d1-4607-b2b0-5e4d5e767fc4" class="st1" d="M142.3 0c1.8 0 3.2 1.4 3.2 3.2s-1.4 3.2-3.2 3.2c-1.8 0-3.2-1.4-3.2-3.2s1.4-3.2 3.2-3.2zm2.4 30.5c-.8 1.3-2.6 1.7-3.9.9-.4-.2-.7-.5-.9-.9-.3-.8-.5-1.6-.4-2.5V13.7c-.1-.8 0-1.7.4-2.5.8-1.3 2.6-1.7 3.9-.9.4.2.7.5.9.9.3.8.5 1.6.4 2.5V28c0 .8-.1 1.7-.4 2.5z"/><path id="e1501b63-7bfa-4132-b5a5-a5f0dd605189" class="st1" d="M161 9.2c1.9-.1 3.8.7 5.2 2 1.6 1.7 2.4 4 2.3 6.3V28c.1.8 0 1.7-.4 2.5-.8 1.3-2.6 1.7-3.9.9-.4-.2-.7-.5-.9-.9-.3-.8-.4-1.6-.3-2.5v-9.8c0-3-1.9-4-3.7-4s-3.7 1-3.7 4V28c.1.8 0 1.7-.4 2.5-.8 1.3-2.6 1.7-3.9.9-.4-.2-.7-.5-.9-.9-.3-.8-.5-1.6-.4-2.5V13c-.1-.9 0-1.7.4-2.5.5-.8 1.4-1.3 2.4-1.3.7 0 1.3.2 1.8.6.4.4.7 1 .8 1.6 1.5-1.4 3.5-2.3 5.6-2.2z"/><path id="_x37_a73c328-4158-4c2b-8431-145450719a11" class="st0" d="M22.6 27.1c.9 1.4.6 3.2-.8 4.2-.5.3-1.1.5-1.6.5-1.4 0-2.2-.9-3.5-2.7L6 13.1v14.7c.1.9 0 1.8-.4 2.6-.5.9-1.5 1.5-2.6 1.4-1.1 0-2.1-.5-2.6-1.4-.4-.8-.5-1.7-.4-2.6v-23c-.1-1 .2-2 .8-2.8.6-.6 1.4-.9 2.2-.9 1.4 0 2.2.9 3.5 2.7l16.1 23.3z"/><path id="_x39_e204fd6-877d-4abf-8e02-aa08fb5c6e74" class="st0" d="M20.2 1.1c-1.7 0-3 1.3-3 3v9.7c.3 1.6 1.8 2.8 3.4 2.5 1.3-.2 2.3-1.2 2.5-2.5V4.1c0-1.6-1.3-2.9-2.9-3z"/></svg>