<?xml version="1.0" encoding="utf-8"?>
<!-- Generator: Adobe Illustrator 23.0.0, SVG Export Plug-In . SVG Version: 6.00 Build 0)  -->
<svg version="1.1" id="Layer_1" xmlns="http://www.w3.org/2000/svg" xmlns:xlink="http://www.w3.org/1999/xlink" x="0px" y="0px"
	 viewBox="0 0 283.46 44.84" style="enable-background:new 0 0 283.46 44.84;" xml:space="preserve">
<style type="text/css">
	.st0{fill:#fff;}
	.st1{fill:#ACADAF;}
	.st2{fill:#FFCB12;}
	.st3{fill:#20B2E8;}
	.st4{fill-rule:evenodd;clip-rule:evenodd;fill:#C42A86;}
	.st5{fill:#B3277C;}
	.st6{fill:#F8B819;}
	.st7{fill:#49A7DD;}
	.st8{fill:url(#SVGID_1_);}
	.st9{fill:url(#SVGID_2_);}
</style>
<g>
	<g>
		<path class="st0" d="M21.72,8.18l-8.84,22.67H8.89L0,8.18h3.72l7.16,19.04L18,8.18H21.72z"/>
		<path class="st0" d="M32.69,28.13c3.05,0,5.24-1.27,6.57-3.81h3.72c-0.79,2.06-2.03,3.72-3.74,4.99c-1.71,1.27-3.91,1.9-6.6,1.9
			c-3.42,0-6.2-1.13-8.34-3.4c-2.09-2.21-3.13-4.97-3.13-8.3c0-3.35,1-6.12,2.99-8.3c2.12-2.27,4.87-3.4,8.25-3.4
			c3.38,0,6.14,1.13,8.25,3.4c1.99,2.18,2.99,4.94,2.99,8.3v1.36h-19c0.24,2.09,1.07,3.81,2.49,5.17
			C28.61,27.43,30.45,28.13,32.69,28.13z M32.42,10.9c-2.09,0-3.84,0.65-5.26,1.95c-1.33,1.24-2.15,2.86-2.45,4.85h15.41
			c-0.3-1.99-1.12-3.61-2.45-4.85C36.25,11.55,34.5,10.9,32.42,10.9z"/>
		<path class="st0" d="M49.19,8.18v3.54c0.82-1.09,1.81-2.01,2.99-2.77c1.18-0.76,2.52-1.13,4.04-1.13c1.51,0,2.81,0.21,3.9,0.63
			c1.09,0.42,2.04,1.06,2.86,1.9c1.87,1.84,2.81,4.28,2.81,7.3v13.19h-3.4v-13.1c0-2.09-0.59-3.75-1.77-4.99
			c-1.18-1.24-2.71-1.86-4.58-1.86c-1.9,0-3.52,0.63-4.85,1.9c-1.33,1.3-1.99,2.96-1.99,4.99v13.06h-3.4V8.18H49.19z"/>
		<path class="st0" d="M71.32,30.85V11.17h-4.62V8.18h4.62V0.06h3.4v8.12h5.21v2.99h-5.21v19.68H71.32z"/>
		<path class="st0" d="M93.58,7.82v3.4h-0.41c-2.45,0-4.44,0.98-5.98,2.95c-1.45,1.87-2.18,4.11-2.18,6.71v9.97h-3.4V8.18h3.4v5.58
			c0.73-2.36,2.3-4.1,4.72-5.21c1-0.48,2.21-0.73,3.63-0.73H93.58z"/>
		<path class="st0" d="M112.3,27.22c-1.81,2.66-4.52,3.99-8.12,3.99c-3.26,0-5.92-1.13-7.98-3.4c-1.99-2.24-2.99-5-2.99-8.3
			c0-3.29,1-6.06,2.99-8.3c2.06-2.27,4.79-3.4,8.21-3.4c3.42,0,6.04,1.34,7.89,4.03V8.18h3.4v22.67h-3.4V27.22z M104.64,28.13
			c2.45,0,4.38-0.85,5.8-2.54c1.36-1.6,2.04-3.63,2.04-6.08s-0.68-4.47-2.04-6.08c-1.42-1.69-3.35-2.54-5.8-2.54
			c-2.42,0-4.38,0.85-5.89,2.54c-1.42,1.6-2.13,3.63-2.13,6.08s0.71,4.47,2.13,6.08C100.26,27.28,102.22,28.13,104.64,28.13z"/>
		<rect x="119.23" y="8.18" class="st1" width="4.04" height="22.67"/>
		<rect x="119.2" y="0.05" class="st1" width="4.04" height="4.64"/>
		<path class="st1" d="M146.5,11c-2.08-2.33-4.83-3.51-8.17-3.51c-3.32,0-5.94,1.13-7.79,3.35V8.18h-4.04v31.65h4.04v-11.7
			c1.86,2.25,4.4,3.4,7.57,3.4c3.49,0,6.32-1.18,8.4-3.51c2.07-2.29,3.12-5.15,3.12-8.51C149.62,16.15,148.57,13.29,146.5,11z
			 M137.87,11.22c2.31,0,4.21,0.82,5.65,2.43c1.36,1.53,2.05,3.51,2.05,5.86c0,2.36-0.69,4.33-2.05,5.86
			c-1.44,1.61-3.34,2.43-5.65,2.43c-2.34,0-4.21-0.82-5.56-2.43c-1.3-1.53-1.96-3.51-1.96-5.87c0-2.36,0.66-4.33,1.97-5.87
			C133.66,12.04,135.53,11.22,137.87,11.22z"/>
	</g>
	<g>
		<path class="st1" d="M72.35,43.51c-0.6,0.89-1.5,1.33-2.7,1.33c-1.09,0-1.97-0.38-2.66-1.13c-0.66-0.74-1-1.67-1-2.76
			c0-1.1,0.33-2.02,1-2.76c0.68-0.75,1.59-1.13,2.73-1.13c1.14,0,2.01,0.45,2.63,1.34v-1.22h1.13v7.55h-1.13V43.51z M69.79,43.82
			c0.82,0,1.46-0.28,1.93-0.85c0.45-0.53,0.68-1.21,0.68-2.02c0-0.82-0.23-1.49-0.68-2.02c-0.47-0.56-1.12-0.85-1.93-0.85
			c-0.81,0-1.46,0.28-1.96,0.85c-0.47,0.53-0.71,1.21-0.71,2.02c0,0.82,0.24,1.49,0.71,2.02C68.34,43.53,68.99,43.82,69.79,43.82z"
			/>
		<path class="st1" d="M80.36,44.72v-1.18c-0.27,0.36-0.6,0.67-1,0.92c-0.39,0.25-0.84,0.38-1.34,0.38s-0.94-0.07-1.3-0.21
			c-0.36-0.14-0.68-0.35-0.95-0.63c-0.62-0.61-0.94-1.42-0.94-2.43v-4.39h1.13v4.36c0,0.69,0.2,1.25,0.59,1.66s0.9,0.62,1.52,0.62
			c0.63,0,1.17-0.21,1.62-0.63c0.44-0.43,0.66-0.99,0.66-1.66v-4.35h1.13v7.55H80.36z"/>
		<path class="st1" d="M87.37,39.2c-0.1-0.79-0.73-1.18-1.89-1.18c-1.16,0-1.74,0.36-1.74,1.09c0,0.3,0.12,0.53,0.37,0.69
			c0.25,0.16,0.56,0.28,0.93,0.38c0.37,0.1,0.78,0.19,1.22,0.28c0.44,0.09,0.84,0.21,1.22,0.36c0.37,0.16,0.68,0.37,0.93,0.64
			c0.25,0.27,0.37,0.64,0.37,1.12c0,0.74-0.28,1.3-0.83,1.68c-0.55,0.39-1.3,0.58-2.25,0.58c-1.01,0-1.81-0.25-2.4-0.75
			c-0.54-0.44-0.84-1.02-0.88-1.74h1.18c0.07,0.69,0.46,1.16,1.18,1.4c0.26,0.08,0.52,0.12,0.78,0.12c0.26,0,0.5-0.02,0.72-0.05
			c0.22-0.03,0.44-0.09,0.65-0.17c0.48-0.19,0.72-0.52,0.72-0.98c0-0.31-0.12-0.55-0.37-0.72c-0.25-0.17-0.56-0.3-0.93-0.41
			c-0.37-0.11-0.78-0.2-1.22-0.29c-0.44-0.09-0.84-0.2-1.22-0.36c-0.37-0.15-0.68-0.36-0.93-0.62c-0.25-0.26-0.37-0.62-0.37-1.09
			c0-0.68,0.25-1.22,0.75-1.59c0.5-0.38,1.24-0.57,2.21-0.57c0.93,0,1.66,0.22,2.19,0.66c0.44,0.37,0.7,0.87,0.77,1.48H87.37z"/>
		<path class="st1" d="M90.49,44.72v-6.55h-1.54v-1h1.54v-2.7h1.13v2.7h1.74v1h-1.74v6.55H90.49z"/>
		<path class="st1" d="M98.05,37.05v1.13h-0.14c-0.82,0-1.48,0.33-1.99,0.98c-0.48,0.62-0.72,1.37-0.72,2.23v3.32h-1.13v-7.55h1.13
			v1.86c0.24-0.79,0.76-1.36,1.57-1.74c0.33-0.16,0.73-0.24,1.21-0.24H98.05z"/>
		<path class="st1" d="M104.44,43.51c-0.6,0.89-1.5,1.33-2.7,1.33c-1.09,0-1.97-0.38-2.66-1.13c-0.66-0.74-1-1.67-1-2.76
			c0-1.1,0.33-2.02,1-2.76c0.68-0.75,1.59-1.13,2.73-1.13c1.14,0,2.01,0.45,2.63,1.34v-1.22h1.13v7.55h-1.13V43.51z M101.89,43.82
			c0.82,0,1.46-0.28,1.93-0.85c0.45-0.53,0.68-1.21,0.68-2.02c0-0.82-0.23-1.49-0.68-2.02c-0.47-0.56-1.12-0.85-1.93-0.85
			c-0.81,0-1.46,0.28-1.96,0.85c-0.47,0.53-0.71,1.21-0.71,2.02c0,0.82,0.24,1.49,0.71,2.02C100.43,43.53,101.08,43.82,101.89,43.82
			z"/>
		<path class="st1" d="M108.14,44.72H107V34.15h1.13V44.72z"/>
		<path class="st1" d="M110.75,34.43v1.48h-1.22v-1.48H110.75z M109.57,37.17h1.13v7.55h-1.13V37.17z"/>
		<path class="st1" d="M118.02,43.51c-0.6,0.89-1.5,1.33-2.7,1.33c-1.09,0-1.97-0.38-2.66-1.13c-0.66-0.74-1-1.67-1-2.76
			c0-1.1,0.33-2.02,1-2.76c0.68-0.75,1.59-1.13,2.73-1.13c1.14,0,2.01,0.45,2.63,1.34v-1.22h1.13v7.55h-1.13V43.51z M115.47,43.82
			c0.82,0,1.46-0.28,1.93-0.85c0.45-0.53,0.68-1.21,0.68-2.02c0-0.82-0.23-1.49-0.68-2.02c-0.47-0.56-1.12-0.85-1.93-0.85
			c-0.81,0-1.46,0.28-1.96,0.85c-0.47,0.53-0.71,1.21-0.71,2.02c0,0.82,0.24,1.49,0.71,2.02C114.01,43.53,114.67,43.82,115.47,43.82
			z"/>
	</g>
	<g>
		<g>
			<path class="st2" d="M183.94,18.89c-0.04-0.98-0.16-1.95-0.37-2.92c-1.16-0.44-2.49-0.85-4-1.24c3.29,5.28,3.05,11.36-0.72,18.24
				c1.06-1.33,2.49-3.4,3.56-5.98C183.54,24.29,184.05,21.57,183.94,18.89z"/>
			<path class="st3" d="M187.77,16.1c0.18-1.67,0.13-3.32-0.13-4.93c-3.25-1.46-6.6-2.32-6.6-2.32c5.93,9.07,2.86,17.27-0.08,21.97
				c1.17-1.43,2.47-3.21,3.61-5.25C186.37,22.38,187.45,19.2,187.77,16.1z"/>
			<path class="st4" d="M185.95,4.82c0,0,7.68,2.92,11.76,6.85c0,0-0.71,14.29-20.05,23.38C177.65,35.05,194.48,20.49,185.95,4.82z"
				/>
			<path class="st5" d="M177.65,35.05c9.23-4.34,14.22-9.86,16.91-14.45c-3.14,0.05-5.64,0.44-7.58,0.93
				C184.08,29.48,177.65,35.05,177.65,35.05z"/>
			<path class="st6" d="M183.69,22.65c-0.94,0.42-1.55,0.8-1.85,1c-0.19,2.92-1.18,6.03-2.98,9.31l0,0c1.06-1.33,2.49-3.4,3.56-5.98
				C183.02,25.55,183.44,24.1,183.69,22.65z"/>
			<path class="st7" d="M186.41,21.69c-0.85,0.24-1.58,0.49-2.19,0.74c-0.52,3.36-1.9,6.24-3.24,8.39l0,0
				c1.17-1.43,2.47-3.21,3.61-5.25C185.31,24.27,185.92,22.98,186.41,21.69z"/>
		</g>
		<g>
			<linearGradient id="SVGID_1_" gradientUnits="userSpaceOnUse" x1="174.8239" y1="32.0898" x2="153.5853" y2="6.7786">
				<stop  offset="0.25" style="stop-color:#C42A86"/>
				<stop  offset="0.75" style="stop-color:#FFCB12"/>
			</linearGradient>
			<polygon class="st8" points="159.78,3.19 163.82,2.17 163.82,39.93 165.48,39.93 165.48,0 159.78,1.58 			"/>
			<linearGradient id="SVGID_2_" gradientUnits="userSpaceOnUse" x1="200.487" y1="35.201" x2="174.8687" y2="4.6703">
				<stop  offset="0.25" style="stop-color:#C42A86"/>
				<stop  offset="0.85" style="stop-color:#23AFE5"/>
			</linearGradient>
			<path class="st9" d="M187.68,0c-10.99,0-19.94,8.94-19.94,19.94s8.94,19.94,19.94,19.94s19.94-8.94,19.94-19.94
				S198.67,0,187.68,0z M206.03,19.94c0,4.9-1.91,9.51-5.38,12.98c-3.47,3.47-8.08,5.38-12.98,5.38s-9.51-1.91-12.98-5.38
				c-3.47-3.47-5.38-8.08-5.38-12.98c0-4.9,1.91-9.51,5.38-12.98c3.47-3.47,8.08-5.38,12.98-5.38c4.9,0,9.51,1.91,12.98,5.38
				C204.13,10.42,206.03,15.03,206.03,19.94z"/>
		</g>
	</g>
	<g>
		<g>
			<path class="st0" d="M218.92,15.02c0.48,0,0.91-0.14,1.29-0.41c0.37-0.27,0.65-0.63,0.82-1.06h1.23
				c-0.23,0.75-0.66,1.35-1.27,1.8c-0.65,0.46-1.41,0.7-2.3,0.7c-1.11,0-2.01-0.38-2.71-1.14c-0.68-0.74-1.01-1.66-1.01-2.77
				c0-1.11,0.34-2.03,1.01-2.77c0.7-0.76,1.6-1.13,2.71-1.13c0.89,0,1.65,0.23,2.3,0.7c0.62,0.45,1.04,1.05,1.27,1.8h-1.23
				c-0.17-0.43-0.44-0.79-0.82-1.06c-0.37-0.27-0.8-0.41-1.29-0.41c-0.48,0-0.9,0.08-1.23,0.23c-0.34,0.15-0.62,0.36-0.86,0.62
				c-0.49,0.54-0.74,1.22-0.74,2.03c0,0.81,0.25,1.48,0.74,2.03C217.34,14.74,218.03,15.02,218.92,15.02z"/>
			<path class="st0" d="M226.35,15.02c1.02,0,1.75-0.42,2.19-1.27h1.24c-0.26,0.69-0.68,1.24-1.25,1.66
				c-0.57,0.42-1.3,0.64-2.2,0.64c-1.14,0-2.07-0.38-2.78-1.14c-0.7-0.74-1.04-1.66-1.04-2.77c0-1.12,0.33-2.04,1-2.77
				c0.71-0.76,1.62-1.13,2.75-1.13c1.13,0,2.05,0.38,2.75,1.13c0.67,0.73,1,1.65,1,2.77v0.45h-6.34c0.08,0.7,0.36,1.27,0.83,1.73
				C224.99,14.79,225.61,15.02,226.35,15.02z M226.26,9.27c-0.7,0-1.28,0.22-1.76,0.65c-0.44,0.41-0.72,0.95-0.82,1.62h5.15
				c-0.1-0.67-0.37-1.21-0.82-1.62C227.54,9.49,226.96,9.27,226.26,9.27z"/>
			<path class="st0" d="M231.86,15.93h-1.14V5.34h1.14V15.93z"/>
			<path class="st0" d="M236.52,15.02c1.02,0,1.75-0.42,2.19-1.27h1.24c-0.26,0.69-0.68,1.24-1.25,1.66
				c-0.57,0.42-1.3,0.64-2.2,0.64c-1.14,0-2.07-0.38-2.78-1.14c-0.7-0.74-1.04-1.66-1.04-2.77c0-1.12,0.33-2.04,1-2.77
				c0.71-0.76,1.62-1.13,2.75-1.13c1.13,0,2.05,0.38,2.75,1.13c0.67,0.73,1,1.65,1,2.77v0.45h-6.34c0.08,0.7,0.36,1.27,0.83,1.73
				C235.16,14.79,235.77,15.02,236.52,15.02z M236.43,9.27c-0.7,0-1.28,0.22-1.76,0.65c-0.44,0.41-0.72,0.95-0.82,1.62H239
				c-0.1-0.67-0.37-1.21-0.82-1.62C237.71,9.49,237.13,9.27,236.43,9.27z"/>
			<path class="st0" d="M242.03,9.59c0.62-0.9,1.52-1.35,2.71-1.35c1.09,0,1.97,0.38,2.65,1.13c0.68,0.75,1.01,1.67,1.01,2.77
				c0,1.1-0.34,2.02-1.01,2.77c-0.68,0.76-1.59,1.14-2.73,1.14c-1.15,0-2.02-0.44-2.63-1.33v1.21h-1.14V5.34h1.14V9.59z
				 M244.59,15.02c0.81,0,1.46-0.28,1.97-0.85c0.47-0.53,0.71-1.21,0.71-2.03s-0.24-1.49-0.71-2.03c-0.5-0.57-1.16-0.85-1.97-0.85
				c-0.82,0-1.46,0.28-1.94,0.85c-0.45,0.53-0.68,1.21-0.68,2.03s0.23,1.49,0.68,2.03C243.12,14.74,243.77,15.02,244.59,15.02z"/>
			<path class="st0" d="M253.2,8.24v1.13h-0.14c-0.82,0-1.48,0.33-2,0.98c-0.48,0.63-0.73,1.37-0.73,2.24v3.33h-1.14V8.36h1.14v1.86
				c0.24-0.79,0.77-1.37,1.57-1.74c0.33-0.16,0.74-0.24,1.21-0.24H253.2z"/>
			<path class="st0" d="M259.45,14.72c-0.61,0.89-1.51,1.33-2.71,1.33c-1.09,0-1.98-0.38-2.66-1.14c-0.67-0.75-1-1.67-1-2.77
				c0-1.1,0.33-2.02,1-2.77c0.69-0.76,1.6-1.13,2.74-1.13c1.14,0,2.02,0.45,2.63,1.35V8.36h1.14v7.57h-1.14V14.72z M256.89,15.02
				c0.82,0,1.46-0.28,1.94-0.85c0.45-0.53,0.68-1.21,0.68-2.03s-0.23-1.49-0.68-2.03c-0.47-0.57-1.12-0.85-1.94-0.85
				c-0.81,0-1.46,0.28-1.97,0.85c-0.47,0.53-0.71,1.21-0.71,2.03s0.24,1.49,0.71,2.03C255.43,14.74,256.08,15.02,256.89,15.02z"/>
			<path class="st0" d="M262.69,15.93V9.36h-1.54v-1h1.54V5.66h1.14v2.71h1.74v1h-1.74v6.57H262.69z"/>
			<path class="st0" d="M267.3,5.61v1.48h-1.23V5.61H267.3z M266.12,8.36h1.14v7.57h-1.14V8.36z"/>
			<path class="st0" d="M269.68,8.36v1.18c0.27-0.36,0.61-0.67,1-0.92c0.39-0.25,0.84-0.38,1.35-0.38c0.5,0,0.94,0.07,1.3,0.21
				c0.36,0.14,0.68,0.35,0.95,0.64c0.63,0.62,0.94,1.43,0.94,2.44v4.4h-1.13v-4.37c0-0.7-0.2-1.25-0.59-1.66
				c-0.39-0.41-0.9-0.62-1.53-0.62c-0.64,0-1.18,0.21-1.62,0.64c-0.44,0.43-0.67,0.99-0.67,1.66v4.36h-1.13V8.36H269.68z"/>
			<path class="st0" d="M282.33,9.58V8.36h1.13v7.34c0,1.09-0.31,1.92-0.93,2.49c-0.62,0.57-1.46,0.86-2.5,0.86s-1.87-0.2-2.46-0.61
				c-0.59-0.4-0.99-0.94-1.2-1.6h1.26c0.32,0.79,1.06,1.18,2.21,1.18c0.88,0,1.51-0.2,1.91-0.61c0.39-0.4,0.59-1,0.59-1.79v-1.04
				c-0.62,0.9-1.52,1.35-2.71,1.35c-1.09,0-1.98-0.37-2.66-1.12c-0.67-0.73-1-1.63-1-2.72s0.33-2,1-2.72
				c0.69-0.75,1.6-1.12,2.75-1.12C280.85,8.24,281.72,8.69,282.33,9.58z M279.77,14.9c0.41,0,0.78-0.07,1.1-0.22
				c0.32-0.15,0.6-0.35,0.83-0.6c0.45-0.52,0.68-1.19,0.68-2s-0.23-1.47-0.68-2c-0.49-0.54-1.14-0.82-1.94-0.82
				c-0.82,0-1.47,0.27-1.97,0.82c-0.47,0.53-0.71,1.2-0.71,2c0,0.8,0.24,1.46,0.71,2C278.3,14.63,278.95,14.9,279.77,14.9z"/>
		</g>
		<g>
			<path class="st0" d="M218.21,21.58v10.02h-1.13v-8.93h-2.12v-1.09H218.21z"/>
			<path class="st0" d="M221.21,26.59c0-3.42,1.17-5.13,3.51-5.13c1.27,0.02,2.2,0.55,2.8,1.6c0.47,0.85,0.71,2.02,0.71,3.53
				c0,3.42-1.17,5.13-3.51,5.13C222.38,31.72,221.21,30.01,221.21,26.59z M224.72,30.61c1.33-0.03,2.09-0.9,2.28-2.62
				c0.06-0.47,0.09-0.94,0.09-1.41c0-1.35-0.19-2.36-0.56-3.03c-0.37-0.67-0.98-1-1.82-1c-0.84,0-1.44,0.33-1.82,1
				c-0.37,0.67-0.56,1.67-0.56,3.03s0.19,2.36,0.56,3.03C223.27,30.28,223.88,30.61,224.72,30.61z"/>
			<path class="st0" d="M233.74,34.59h-1.23l1.38-3.1l-3.09-7.46h1.26l2.44,6.2l2.48-6.2h1.24L233.74,34.59z"/>
			<path class="st0" d="M241.82,30.69c1.02,0,1.75-0.42,2.19-1.27h1.24c-0.26,0.69-0.68,1.24-1.25,1.66
				c-0.57,0.42-1.3,0.64-2.2,0.64c-1.14,0-2.07-0.38-2.78-1.14c-0.7-0.74-1.04-1.66-1.04-2.77c0-1.12,0.33-2.04,1-2.77
				c0.71-0.76,1.62-1.13,2.75-1.13c1.13,0,2.05,0.38,2.75,1.13c0.67,0.73,1,1.65,1,2.77v0.45h-6.34c0.08,0.7,0.36,1.27,0.83,1.73
				C240.46,30.45,241.07,30.69,241.82,30.69z M241.73,24.94c-0.7,0-1.28,0.22-1.76,0.65c-0.44,0.41-0.72,0.95-0.82,1.62h5.15
				c-0.1-0.67-0.37-1.21-0.82-1.62C243.01,25.15,242.42,24.94,241.73,24.94z"/>
			<path class="st0" d="M252.09,30.38c-0.61,0.89-1.51,1.33-2.71,1.33c-1.09,0-1.98-0.38-2.66-1.14c-0.67-0.75-1-1.67-1-2.77
				c0-1.1,0.33-2.02,1-2.77c0.69-0.76,1.6-1.13,2.74-1.13c1.14,0,2.02,0.45,2.63,1.35v-1.23h1.13v7.57h-1.13V30.38z M249.54,30.69
				c0.82,0,1.46-0.28,1.94-0.85c0.45-0.53,0.68-1.21,0.68-2.03s-0.23-1.49-0.68-2.03c-0.47-0.57-1.12-0.85-1.94-0.85
				c-0.81,0-1.46,0.28-1.97,0.85c-0.47,0.53-0.71,1.21-0.71,2.03s0.24,1.49,0.71,2.03C248.07,30.4,248.73,30.69,249.54,30.69z"/>
			<path class="st0" d="M258.51,23.91v1.13h-0.14c-0.82,0-1.48,0.33-2,0.98c-0.48,0.63-0.73,1.37-0.73,2.24v3.33h-1.13v-7.57h1.13
				v1.86c0.24-0.79,0.77-1.37,1.57-1.74c0.33-0.16,0.74-0.24,1.21-0.24H258.51z"/>
			<path class="st0" d="M263.5,26.06c-0.1-0.79-0.73-1.18-1.9-1.18c-1.17,0-1.75,0.36-1.75,1.09c0,0.3,0.12,0.53,0.37,0.69
				c0.25,0.16,0.56,0.29,0.93,0.39c0.37,0.1,0.78,0.19,1.22,0.28c0.44,0.09,0.84,0.21,1.22,0.36c0.37,0.16,0.68,0.37,0.93,0.64
				c0.25,0.27,0.37,0.65,0.37,1.12c0,0.74-0.28,1.3-0.83,1.69c-0.56,0.39-1.31,0.58-2.25,0.58c-1.01,0-1.81-0.25-2.41-0.76
				c-0.54-0.44-0.84-1.02-0.88-1.74h1.18c0.07,0.7,0.46,1.17,1.18,1.41c0.26,0.08,0.52,0.12,0.78,0.12c0.26,0,0.5-0.02,0.72-0.05
				s0.44-0.09,0.65-0.17c0.48-0.19,0.73-0.52,0.73-0.98c0-0.31-0.12-0.55-0.37-0.72c-0.25-0.17-0.56-0.3-0.93-0.41
				c-0.37-0.11-0.78-0.2-1.22-0.29c-0.44-0.09-0.85-0.2-1.22-0.36c-0.37-0.15-0.68-0.36-0.93-0.62c-0.25-0.26-0.37-0.63-0.37-1.09
				c0-0.69,0.25-1.22,0.75-1.6s1.24-0.57,2.22-0.57c0.93,0,1.66,0.22,2.19,0.67c0.44,0.37,0.7,0.87,0.77,1.48H263.5z"/>
		</g>
	</g>
</g>
</svg>
